<svg xmlns="http://www.w3.org/2000/svg" viewBox="0 0 112.061 112.061" width="24" height="24">
  <g transform="translate(112.061,0) scale(-1,1)">
    <path fill="currentColor" d="M105.969,35.324C105.969,15.516,90.096,0,69.834,0H13.398C9.361,0,6.09,3.272,6.09,7.309c0,4.037,3.271,7.308,7.308,7.308 h56.437c12.267,0,21.521,8.901,21.521,20.707v7.308c0,12.544-9.855,23.144-21.521,23.144H13.398c-4.037,0-7.308,3.271-7.308,7.308 s3.271,7.309,7.308,7.309h56.437c19.927,0,36.136-16.938,36.136-37.759v-7.309H105.969z"/>
    <path fill="currentColor" d="M13.398,97.443c-4.037,0-7.308,3.271-7.308,7.309s3.271,7.309,7.308,7.309h85.263c4.037,0,7.31-3.271,7.31-7.309 c0-4.035-3.271-7.309-7.31-7.309H13.398z"/>
  </g>
</svg>
